<svg viewBox="0 0 158 164" fill="none" xmlns="http://www.w3.org/2000/svg">
  <path d="M90.5 0H2C0.895431 0 0 0.895429 0 2V162C0 163.105 0.89543 164 2 164H11.1433C11.7487 164 12.3214 163.726 12.7011 163.254L52.5577 113.758C52.8439 113.403 53 112.96 53 112.504V48C53 46.8954 53.8954 46 55 46H110.266C112.034 46 112.933 48.1263 111.7 49.3942L98.8554 62.6058C98.1008 63.3821 98.1008 64.6179 98.8554 65.3942L111.7 78.6058C112.933 79.8737 112.034 82 110.266 82H67C65.8954 82 65 82.8954 65 84V114.988C65 115.444 65.1561 115.887 65.4423 116.242L103.299 163.254C103.679 163.726 104.251 164 104.857 164H155.973C157.626 164 158.566 162.109 157.567 160.791L125.33 118.284C124.617 117.343 124.871 115.995 125.853 115.341C142.829 104.033 154 84.8107 154 63C154 28.2061 125.57 0 90.5 0Z" fill="#00ff66"/>
</svg>
